<svg width="32" height="17" viewBox="0 0 32 17" fill="none" xmlns="http://www.w3.org/2000/svg">
<path fill-rule="evenodd" clip-rule="evenodd" d="M0.666016 1.625C0.666016 1.07272 1.11373 0.625 1.66602 0.625H30.5708C31.1231 0.625 31.5708 1.07272 31.5708 1.625C31.5708 2.17728 31.1231 2.625 30.5708 2.625H1.66602C1.11373 2.625 0.666016 2.17728 0.666016 1.625Z" fill="#8F8F8F"/>
<path fill-rule="evenodd" clip-rule="evenodd" d="M0.666016 8.5C0.666016 7.94772 1.11373 7.5 1.66602 7.5H30.5708C31.1231 7.5 31.5708 7.94772 31.5708 8.5C31.5708 9.05228 31.1231 9.5 30.5708 9.5H1.66602C1.11373 9.5 0.666016 9.05228 0.666016 8.5Z" fill="#8F8F8F"/>
<path fill-rule="evenodd" clip-rule="evenodd" d="M0.666016 15.375C0.666016 14.8227 1.11373 14.375 1.66602 14.375H30.5708C31.1231 14.375 31.5708 14.8227 31.5708 15.375C31.5708 15.9273 31.1231 16.375 30.5708 16.375H1.66602C1.11373 16.375 0.666016 15.9273 0.666016 15.375Z" fill="#8F8F8F"/>
</svg>
